<!-- Generated by IcoMoon.io -->
<svg version="1.1" xmlns="http://www.w3.org/2000/svg"  viewBox="0 0 1024 1024">
<title>path64</title>
<g id="icomoon-ignore">
</g>
<path d="M638.448 785.698c-3.298 0-6.497-1.118-9.077-3.172-2.579-2.055-4.384-4.923-5.121-8.137-0.738-3.213-0.364-6.582 1.062-9.556 1.426-2.972 3.818-5.375 6.785-6.811 12.544-6.047 24.538-13.172 35.847-21.297 3.139-2.098 6.97-2.894 10.685-2.223s7.024 2.759 9.229 5.822c2.206 3.064 3.137 6.863 2.595 10.6-0.54 3.736-2.511 7.115-5.495 9.428-12.68 9.095-26.121 17.078-40.174 23.859-1.973 0.967-4.139 1.475-6.335 1.486z"></path>
<path d="M509.814 815.704c-60.498 0-119.64-17.94-169.942-51.552-50.304-33.611-89.51-81.384-112.662-137.278s-29.21-117.398-17.408-176.734c11.803-59.337 40.937-113.842 83.716-156.621s97.284-71.913 156.619-83.715c59.337-11.803 120.841-5.745 176.736 17.407 55.893 23.152 103.667 62.358 137.278 112.662 33.611 50.303 51.552 109.444 51.552 169.942 0 5.113-0.16 10.066-0.466 15.178-0.298 3.833-2.076 7.4-4.958 9.944s-6.641 3.868-10.481 3.69c-3.856-0.24-7.458-2.001-10.015-4.896s-3.859-6.688-3.619-10.543c0.276-4.502 0.408-8.871 0.408-13.373 0-54.737-16.232-108.245-46.642-153.758s-73.635-80.985-124.206-101.932c-50.569-20.946-106.217-26.427-159.902-15.748-53.686 10.678-103 37.036-141.704 75.742-38.706 38.705-65.064 88.018-75.742 141.704s-5.198 109.332 15.748 159.903c20.948 50.571 56.42 93.793 101.932 124.204s99.021 46.642 153.758 46.642c4.37 0 8.74-0.132 13.11-0.408 1.913-0.12 3.831 0.139 5.644 0.76s3.486 1.595 4.922 2.863c1.438 1.268 2.611 2.807 3.453 4.529s1.338 3.592 1.457 5.504c0.12 1.913-0.139 3.831-0.76 5.644s-1.594 3.486-2.862 4.922c-1.268 1.438-2.807 2.611-4.529 3.453s-3.592 1.338-5.505 1.458c-4.996 0.261-9.962 0.407-14.93 0.407z"></path>
<path d="M748.539 691.018c-2.683 0-5.311-0.741-7.601-2.141-2.288-1.399-4.145-3.403-5.367-5.791s-1.76-5.066-1.556-7.741c0.203-2.673 1.141-5.24 2.71-7.415 8.104-11.268 15.248-23.195 21.354-35.658 1.726-3.438 4.743-6.055 8.39-7.277 3.649-1.223 7.631-0.953 11.082 0.752 3.449 1.704 6.083 4.705 7.328 8.346s1 7.625-0.683 11.085c-6.82 13.905-14.797 27.211-23.844 39.78-1.349 1.874-3.123 3.401-5.177 4.454s-4.329 1.603-6.637 1.606z"></path>
<path d="M593.891 584.525c-2.979-0.003-5.885-0.918-8.328-2.623-2.441-1.704-4.302-4.118-5.332-6.913-1.028-2.794-1.175-5.838-0.42-8.72 0.755-2.881 2.374-5.462 4.64-7.394l57.654-49.059-57.654-49.059c-1.457-1.242-2.653-2.761-3.523-4.467-0.87-1.707-1.396-3.568-1.547-5.477s0.077-3.829 0.667-5.651c0.591-1.822 1.536-3.509 2.78-4.965s2.761-2.654 4.468-3.523c1.706-0.87 3.566-1.396 5.476-1.547s3.829 0.075 5.651 0.667c1.822 0.591 3.509 1.536 4.965 2.78l70.675 60.142c1.61 1.368 2.902 3.069 3.789 4.985s1.345 4.003 1.345 6.114c0 2.113-0.458 4.198-1.345 6.114-0.887 1.917-2.179 3.618-3.789 4.985l-70.675 60.144c-2.65 2.253-6.019 3.482-9.496 3.467z"></path>
<path d="M425.739 584.525c-3.464 0.005-6.815-1.225-9.454-3.467l-70.675-60.144c-1.609-1.368-2.901-3.068-3.787-4.985-0.887-1.916-1.346-4.002-1.346-6.114s0.459-4.197 1.346-6.114c0.887-1.916 2.179-3.618 3.787-4.985l70.675-60.142c2.943-2.511 6.761-3.751 10.617-3.447 3.855 0.305 7.432 2.129 9.944 5.070 2.51 2.941 3.75 6.761 3.445 10.616-0.305 3.856-2.127 7.433-5.070 9.945l-57.696 49.058 57.653 49.059c2.266 1.932 3.886 4.514 4.642 7.394 0.755 2.882 0.608 5.926-0.422 8.722-1.028 2.794-2.889 5.208-5.332 6.912-2.443 1.706-5.349 2.621-8.327 2.623z"></path>
<path d="M460.727 656.714c-1.731-0.005-3.447-0.317-5.069-0.918-3.622-1.343-6.562-4.069-8.173-7.579s-1.764-7.517-0.422-11.139l98.191-264.651c0.67-1.793 1.686-3.437 2.99-4.838 1.306-1.4 2.873-2.53 4.615-3.325 1.741-0.794 3.622-1.238 5.535-1.306s3.821 0.241 5.614 0.911c1.793 0.67 3.437 1.686 4.837 2.991 1.401 1.304 2.53 2.873 3.325 4.613 0.795 1.742 1.238 3.623 1.307 5.536 0.067 1.913-0.243 3.82-0.912 5.613l-98.191 264.58c-1.031 2.789-2.893 5.195-5.332 6.896s-5.342 2.613-8.316 2.615z"></path>
<path d="M574.61 1024h-125.222c-6.699-0.049-13.183-2.375-18.386-6.597s-8.814-10.088-10.241-16.633l-13.561-67.686c-41.828-10.415-81.857-27.042-118.754-49.327l-57.402 38.166c-5.583 3.73-12.281 5.425-18.967 4.802-6.686-0.624-12.954-3.527-17.752-8.226l-88.532-88.664c-4.774-4.837-7.721-11.18-8.34-17.948s1.129-13.541 4.946-19.164l38.035-57.052c-22.333-36.9-38.949-76.968-49.284-118.843l-67.745-13.545c-6.581-1.405-12.486-5.011-16.741-10.224-4.255-5.212-6.606-11.719-6.664-18.448v-125.222c0.049-6.699 2.375-13.183 6.597-18.386 4.222-5.202 10.087-8.814 16.633-10.241l67.818-13.604c10.337-41.867 26.948-81.929 49.269-118.828l-38.24-57.197c-3.737-5.586-5.437-12.289-4.813-18.982s3.532-12.966 8.237-17.765l88.664-88.65c4.828-4.782 11.166-7.739 17.931-8.369s13.54 1.108 19.168 4.917l57.050 38.107c36.923-22.324 76.989-38.977 118.858-49.401l13.545-67.584c1.405-6.581 5.011-12.486 10.224-16.741s11.719-6.606 18.448-6.664h125.222c6.699 0.049 13.183 2.375 18.386 6.597s8.814 10.087 10.241 16.633l13.561 67.686c41.938 10.38 82.064 27.045 119.017 49.429l57.052-38.253c5.586-3.737 12.289-5.437 18.982-4.813s12.966 3.532 17.765 8.237l88.664 88.649c4.797 4.82 7.765 11.158 8.395 17.928s-1.117 13.548-4.942 19.17l-38.035 57.182c22.294 36.888 38.921 76.915 49.327 118.741l67.453 13.53c6.602 1.381 12.535 4.977 16.812 10.191 4.278 5.216 6.645 11.736 6.71 18.481v125.222c-0.049 6.699-2.375 13.183-6.597 18.386s-10.088 8.814-16.633 10.241l-67.686 13.575c-10.406 41.826-27.034 81.853-49.327 118.741l38.18 57.402c3.727 5.586 5.42 12.283 4.794 18.97s-3.533 12.952-8.232 17.749l-88.664 88.664c-4.829 4.779-11.166 7.735-17.931 8.364s-13.54-1.106-19.168-4.913l-57.050-38.136c-36.931 22.377-77.032 39.043-118.946 49.43l-13.458 67.511c-1.405 6.581-5.011 12.486-10.224 16.741-5.212 4.255-11.719 6.606-18.448 6.664zM288.183 851.719c2.738-0.007 5.422 0.764 7.738 2.225 39 24.771 81.979 42.632 127.049 52.794 2.758 0.624 5.276 2.035 7.249 4.060s3.317 4.578 3.87 7.351l15.316 76.595h125.075l15.477-76.595c0.552-2.776 1.898-5.33 3.875-7.355 1.975-2.025 4.496-3.434 7.257-4.056 45.071-10.111 88.044-27.969 127.006-52.779 2.429-1.483 5.226-2.251 8.072-2.218s5.625 0.868 8.020 2.408l64.935 43.446 88.474-88.444-42.656-64c-0.551-0.666-1.040-1.381-1.463-2.136-1.273-2.286-1.909-4.873-1.843-7.49 0.067-2.618 0.835-5.169 2.225-7.388 24.778-38.996 42.639-81.977 52.794-127.049 0.624-2.758 2.035-5.275 4.060-7.249 2.024-1.973 4.578-3.317 7.351-3.868l76.683-15.375v-125.207l-76.595-15.36c-2.773-0.551-5.326-1.896-7.351-3.868-2.025-1.974-3.436-4.491-4.060-7.249-10.155-45.072-28.016-88.053-52.794-127.049-1.4-2.212-2.181-4.76-2.261-7.377s0.544-5.208 1.807-7.501c0.509-0.934 1.124-1.808 1.828-2.604l42.248-63.531-88.43-88.503-64.892 43.505c-2.393 1.543-5.171 2.379-8.018 2.413s-5.645-0.737-8.073-2.223c-38.962-24.81-81.935-42.669-127.006-52.779-2.759-0.622-5.28-2.030-7.257-4.056-1.975-2.025-3.321-4.58-3.875-7.355l-15.418-76.595h-125.207l-15.345 76.595c-0.552 2.773-1.896 5.326-3.87 7.351s-4.489 3.435-7.247 4.059c-45.071 10.163-88.051 28.023-127.049 52.794-2.392 1.514-5.171 2.303-8.001 2.269-2.831-0.034-5.59-0.888-7.945-2.459l-65.097-43.447-88.488 88.43 43.52 65.067c1.571 2.355 2.425 5.115 2.459 7.945s-0.755 5.609-2.269 8.001c-24.77 38.969-42.589 81.942-52.662 127.004-0.647 2.917-2.172 5.565-4.368 7.588-2.197 2.025-4.96 3.328-7.92 3.735l-75.849 15.213v125.207l76.346 15.301c2.852 0.504 5.493 1.836 7.592 3.832s3.565 4.565 4.213 7.389c10.074 45.063 27.893 88.036 52.663 127.004 1.513 2.389 2.303 5.164 2.272 7.991s-0.881 5.585-2.447 7.94l-43.301 65.082 88.284 88.518 64-42.686c2.631-2.11 5.901-3.261 9.274-3.263h0.030z"></path>
</svg>
