<svg version="1.1" xmlns="http://www.w3.org/2000/svg"  viewBox="0 0 1024 1024">
<title></title>
<g id="icomoon-ignore">
</g>
<path d="M432 0h160c26.598 0 48 21.4 48 48v336h175.401c35.599 0 53.402 43 28.201 68.2l-304.2 304.398c-15.002 15.002-39.602 15.002-54.602 0l-304.6-304.398c-25.2-25.2-7.4-68.2 28.2-68.2h175.6v-336c0-26.6 21.4-48 48-48zM1024 752v224c0 26.598-21.402 48-48 48h-928c-26.6 0-48-21.402-48-48v-224c0-26.598 21.4-48 48-48h293.4l98 98.002c40.2 40.197 104.999 40.197 145.202 0l97.997-98.002h293.402c26.598 0 48 21.402 48 48zM775.997 928c0-22.001-17.997-39.997-39.997-39.997s-39.997 17.997-39.997 39.997c0 22.001 17.997 39.997 39.997 39.997s39.997-17.997 39.997-39.997zM903.997 928c0-22.001-17.997-39.997-39.997-39.997s-39.997 17.997-39.997 39.997c0 22.001 17.997 39.997 39.997 39.997s39.997-17.997 39.997-39.997z"></path>
</svg>

